<svg xmlns="http://www.w3.org/2000/svg" width="500" height="500" viewBox="0 0 500 500">
  <!-- Building Icon -->
  <rect x="50" y="100" width="150" height="300" fill="#6FA4FC" stroke="#3A5FCC" stroke-width="3"/>
  <rect x="80" y="130" width="40" height="40" fill="#FFFFFF"/>
  <rect x="130" y="130" width="40" height="40" fill="#FFFFFF"/>
  <rect x="80" y="190" width="40" height="40" fill="#FFFFFF"/>
  <rect x="130" y="190" width="40" height="40" fill="#FFFFFF"/>
  <rect x="80" y="250" width="40" height="40" fill="#FFFFFF"/>
  <rect x="130" y="250" width="40" height="40" fill="#FFFFFF"/>

  <!-- Calendar Icon -->
  <rect x="250" y="100" width="180" height="140" fill="#82C9A6" stroke="#5DA280" stroke-width="3"/>
  <line x1="250" y1="140" x2="430" y2="140" stroke="#5DA280" stroke-width="3"/>
  <circle cx="270" cy="160" r="10" fill="#FFFFFF"/>
  <circle cx="310" cy="160" r="10" fill="#FFFFFF"/>
  <circle cx="350" cy="160" r="10" fill="#FFFFFF"/>
  <circle cx="270" cy="200" r="10" fill="#FFFFFF"/>
  <circle cx="310" cy="200" r="10" fill="#FFFFFF"/>
  <circle cx="350" cy="200" r="10" fill="#FFFFFF"/>

  <!-- Handshake Icon -->
  <path d="M150 400 Q200 370 250 400 Q300 430 350 400" fill="none" stroke="#F2B179" stroke-width="6"/>
  <circle cx="200" cy="400" r="20" fill="#F2B179"/>
  <circle cx="300" cy="400" r="20" fill="#F2B179"/>
</svg>
